<svg width="16" height="16" viewBox="0 0 16 16" fill="none" xmlns="http://www.w3.org/2000/svg">
<path d="M15.5459 13.9541C15.7572 14.1654 15.876 14.452 15.876 14.7509C15.876 15.0498 15.7572 15.3365 15.5459 15.5478C15.3346 15.7592 15.0479 15.8779 14.749 15.8779C14.4501 15.8779 14.1635 15.7592 13.9521 15.5478L7.99996 9.59375L2.0459 15.5459C1.83455 15.7573 1.54791 15.876 1.24902 15.876C0.950136 15.876 0.663491 15.7573 0.452147 15.5459C0.240802 15.3346 0.12207 15.0479 0.12207 14.7491C0.12207 14.4502 0.240803 14.1635 0.452147 13.9522L6.40621 8L0.454022 2.04593C0.242677 1.83459 0.123945 1.54795 0.123945 1.24906C0.123945 0.950173 0.242677 0.663528 0.454022 0.452184C0.665366 0.24084 0.95201 0.122107 1.2509 0.122107C1.54978 0.122107 1.83643 0.24084 2.04777 0.452184L7.99996 6.40625L13.954 0.451246C14.1654 0.239902 14.452 0.12117 14.7509 0.12117C15.0498 0.12117 15.3364 0.239902 15.5478 0.451246C15.7591 0.662591 15.8778 0.949235 15.8778 1.24812C15.8778 1.54701 15.7591 1.83365 15.5478 2.045L9.59371 8L15.5459 13.9541Z" fill="black"/>
</svg>
