<svg fill="currentColor" xmlns="http://www.w3.org/2000/svg" viewBox="0 0 16 16" class="cl-userButtonPopoverActionButtonIcon cl-userButtonPopoverActionButtonIcon__manageAccount 🔒️ cl-internal-nkp44p"><path fill-rule="evenodd" clip-rule="evenodd" d="M6.559 2.536A.667.667 0 0 1 7.212 2h1.574a.667.667 0 0 1 .653.536l.22 1.101c.466.178.9.429 1.287.744l1.065-.36a.667.667 0 0 1 .79.298l.787 1.362a.666.666 0 0 1-.136.834l-.845.742c.079.492.079.994 0 1.486l.845.742a.666.666 0 0 1 .137.833l-.787 1.363a.667.667 0 0 1-.791.298l-1.065-.36c-.386.315-.82.566-1.286.744l-.22 1.101a.666.666 0 0 1-.654.536H7.212a.666.666 0 0 1-.653-.536l-.22-1.101a4.664 4.664 0 0 1-1.287-.744l-1.065.36a.666.666 0 0 1-.79-.298L2.41 10.32a.667.667 0 0 1 .136-.834l.845-.743a4.7 4.7 0 0 1 0-1.485l-.845-.742a.667.667 0 0 1-.137-.833l.787-1.363a.667.667 0 0 1 .791-.298l1.065.36c.387-.315.821-.566 1.287-.744l.22-1.101ZM7.999 10a2 2 0 1 0 0-4 2 2 0 0 0 0 4Z"></path></svg>